<svg xmlns="http://www.w3.org/2000/svg" width="256" height="256"><path fill-opacity=".016" d="M0 128.004v128.004l128.25-.254 128.25-.254.254-127.75L257.008 0H0v128.004m.485.496c0 70.4.119 99.053.265 63.672.146-35.38.146-92.98 0-128C.604 29.153.485 58.1.485 128.5" fill="#1976D2" fill-rule="evenodd"/><path fill-opacity=".179" d="M83.064 22.423c-1.008 1.214-1.092 2.221-.326 3.902.836 1.835 7.924 11.719 12.454 17.367.692.862-.232 1.511-3.351 2.351-2.369.638-6.481 2.261-9.137 3.607l-4.829 2.447-3.615-3.174c-5.164-4.534-9.29-6.062-13.28-4.917-3.78 1.084-6.98 3.697-6.98 5.7 0 1.673 5.024 3.898 12.236 5.42 2.895.611 5.394 1.225 5.552 1.364.159.139-1.114 2.51-2.828 5.268-1.715 2.758-3.723 6.753-4.464 8.878L63.15 74.5l-5.073-.321c-4.703-.298-5.146-.128-6.085 2.342-.732 1.926-.657 3.399.271 5.321 1.089 2.256 1.923 2.658 5.513 2.658 4.067 0 4.25.135 4.758 3.5.907 6.009 3.56 14.324 5.972 18.716l2.315 4.216-12.301 9.172-12.301 9.171 7.225 15.113c3.973 8.311 13.174 27.52 20.447 42.685l13.223 27.573 40.193 9.701c22.106 5.336 40.74 9.691 41.408 9.677.669-.013 10.049-12.442 20.844-27.62l19.628-27.595-1.587-39.655c-.873-21.81-1.864-44.042-2.201-49.404l-.615-9.75-10.642-.123c-5.853-.067-15.254-.404-20.891-.75l-10.249-.627-5.297-6.954c-5.905-7.753-15.809-15.812-24.864-20.232l-5.988-2.923 7.571-6.263c9.854-8.151 11.192-13.087 4.222-15.571-4.762-1.697-7.897.278-9.453 5.957-.752 2.742-2.021 7.301-2.82 10.131l-1.454 5.144-5.537-1.446c-3.046-.795-8.204-1.535-11.462-1.645-6.707-.224-6.432.147-7.428-10.031-.893-9.118-3.863-12.708-11.09-13.402-3.811-.367-5.298-.095-6.338 1.158M156.2 52.425c-2.576 2.434-4.443 4.665-4.149 4.959 1.214 1.214 15.171-.744 17.239-2.418 1.866-1.511 1.986-2.064.945-4.349-1.002-2.2-1.842-2.617-5.272-2.617-3.452 0-4.799.68-8.763 4.425" fill="#1976D2" fill-rule="evenodd"/><path fill-opacity=".544" d="M83.667 21.667c-2.387 2.386-.092 6.659 11.186 20.833 3.063 3.85 5.699 7.187 5.858 7.417.159.229.536.169.838-.132.981-.982-2.325-22.81-3.707-24.476-2.662-3.21-12.166-5.652-14.175-3.642m48.553 6.083c-1.192 1.042-2.891 5.149-4.202 10.155-1.21 4.623-2.466 9.1-2.792 9.949-.81 2.109 4.285-1.581 11.846-8.581 6.412-5.937 7.126-8.079 3.739-11.234-2.685-2.502-5.935-2.611-8.591-.289M57.25 45.989c-3.841 2.342-4.041 3.447-.984 5.45 2.495 1.634 27.608 8.021 28.405 7.223.571-.57-14.051-12.813-16.532-13.842-3.116-1.292-7.651-.805-10.889 1.169m101.15 4.844c-2.145 1.559-4.518 3.584-5.272 4.5-1.257 1.526-.817 1.667 5.203 1.667 10.011 0 14.736-3.058 11.038-7.145-2.402-2.654-6.467-2.292-10.969.978m-48.406 10.101c-4.941 1.503-8.628 3.968-13.057 8.729-5.766 6.197-8.067 10.005-11.994 19.851-6.542 16.404-5.102 14.675-24.693 29.648-7.288 5.569-13.25 10.349-13.25 10.62 0 1.05 39.407 82.779 40.424 83.839 1.16 1.21 81.44 20.848 82.184 20.105.246-.247 9.224-12.772 19.952-27.835l19.504-27.388-.545-8.001c-.3-4.401-1.236-26.002-2.079-48.002-.843-22-1.71-40.53-1.927-41.177-.28-.837-6.408-1.279-21.204-1.53-23.965-.406-27.662-1.326-38.005-9.461-3.192-2.511-8.504-5.862-11.804-7.448-5.054-2.428-7.182-2.869-13.5-2.797-4.125.047-8.628.428-10.006.847m2.957 7.373c-6.4 1.803-11.266 5.06-14.211 9.51-3.358 5.075-8.16 14.741-9.735 19.599-1.703 5.253-7.196 11.003-20.799 21.774-6.246 4.946-11.184 9.165-10.972 9.377.331.331 54.097-1.67 78.483-2.92l8.217-.422 15.783-11.481c8.681-6.315 17.145-12.328 18.81-13.363C182.641 97.825 195 87.793 195 87.011c0-.347-7.845-1.161-17.433-1.81-19.712-1.333-23.565-2.395-36.228-9.983-4.33-2.595-9.12-5.279-10.644-5.964-4.265-1.917-12.702-2.368-17.744-.947M53.2 75.2c-1.837 1.837-1.428 6.283.76 8.264 1.505 1.362 2.84 1.615 5.75 1.09 4.495-.81 12.29-4.365 12.29-5.605 0-.479-1.912-1.368-4.25-1.974-2.338-.607-5.825-1.522-7.75-2.033-4.556-1.212-5.361-1.181-6.8.258" fill="#1976D2" fill-rule="evenodd"/><path fill-opacity=".979" d="M84.75 21.729c-3.815.91-1.562 5.566 9.25 19.114 3.575 4.48 6.659 7.67 6.854 7.09.413-1.234-1.603-19.115-2.385-21.153-1.146-2.986-9.493-6.059-13.719-5.051m46.727 6.308c-.855 1.384-5.6 19.173-5.216 19.557.165.165 3.774-2.623 8.02-6.195 6.182-5.202 7.719-7.044 7.719-9.247 0-1.514-.54-3.292-1.2-3.952-1.471-1.471-8.439-1.593-9.323-.163M58.25 45.745c-4.009 1.995-4.18 4.627-.403 6.192 3.649 1.511 27.601 7.065 26.49 6.142-.46-.383-3.598-3.032-6.973-5.888-10.013-8.471-13.011-9.483-19.114-6.446M163 48.69c-2.849 1.011-8.853 5.484-9.45 7.04-.523 1.363.318 1.477 6.601.893 3.96-.368 7.796-1.164 8.525-1.769 3.798-3.152-.626-7.956-5.676-6.164m-52.049 12.612C98.639 64.784 92.098 72.761 82.908 95.5c-3.791 9.38-5.632 11.34-23.121 24.606l-12.618 9.572 19.884 41.411c10.936 22.776 20.011 41.736 20.166 42.133.226.581 73.17 18.709 80.229 19.939 1.546.269 5.93-5.237 21.228-26.661l19.28-27-.048-8c-.087-14.438-3.445-89.37-4.031-89.956-.315-.315-10.204-.933-21.975-1.373-24.273-.907-26.627-1.526-37.118-9.763-11.291-8.864-23.28-12.091-33.833-9.106m1.043 6.632c-8.727 2.655-13.286 7.519-19.533 20.837-2.509 5.351-5.373 11.304-6.364 13.229-1.102 2.142-6.999 7.715-15.199 14.364-7.369 5.975-13.527 11.198-13.684 11.607-.157.409 7.805 18.695 17.692 40.636L92.884 208.5l34.308 5.688c18.869 3.128 35.222 5.716 36.339 5.75 1.434.044 7.025-5.726 19-19.609 9.333-10.819 17.55-20.485 18.261-21.479 1.066-1.492.733-9.722-1.905-47.079-1.758-24.899-3.267-45.373-3.353-45.499-.086-.125-8.519-.848-18.739-1.606-17.346-1.287-19.039-1.591-25.416-4.576-3.758-1.758-9.543-4.898-12.856-6.978-3.313-2.079-7.553-4.305-9.422-4.946-3.76-1.29-13.209-1.418-17.107-.232m-59.527 9.34C51.414 81.471 53.476 84 57.952 84 62.03 84 71 80.696 71 79.194c0-1.132-6.708-3.135-12.986-3.879-4.632-.548-4.945-.438-5.547 1.959m107.736 36.578-16.25 11.851-12.727.64c-6.999.352-21.951.94-33.226 1.307-20.3.661-32.393 2.096-19 2.255 6.385.076 61.418 3.155 61.586 3.446.047.082 4.522 15.774 9.944 34.872 5.422 19.097 10.034 34.546 10.25 34.331.215-.216-2.198-17.043-5.362-37.393l-5.755-37.001 10.419-9.907c5.73-5.45 11.993-11.323 13.918-13.051 1.925-1.729 3.265-3.157 2.977-3.173-.288-.016-7.836 5.304-16.774 11.823" fill="#1976D2" fill-rule="evenodd"/></svg>