<svg xmlns="http://www.w3.org/2000/svg" id="Layer_1" data-name="Layer 1" viewBox="0 0 200 200"><defs><style>.cls-2{fill:#171615}.cls-4{fill:#191715}</style></defs><path fill="#feca00" d="M200 100A100 100 0 1 1 102.6 0 100 100 0 0 1 200 100zm-74 6.3a18.1 18.1 0 1 0 0-.2v.2zm-52 .1a18.3 18.3 0 1 0-18.2 18.3A18.3 18.3 0 0 0 74 106.4zm38 22.1a33.7 33.7 0 0 0-15 3.2A31.6 31.6 0 0 0 79.3 151c-.6 2-.2 3.2 1.1 4s2.6.4 4-1.2a68.4 68.4 0 0 1 10.1-9.7c7-5.3 15.1-8.1 23.8-9.2 1.9-.2 2.8-1.2 2.9-2.7s-1-2.6-2.8-3a24.4 24.4 0 0 0-6.4-.7zM36.9 70.3a22.8 22.8 0 0 0 .5 4.4c.3 1.6 1 2.7 2.7 2.8s2.6-1 3-2.5a55.2 55.2 0 0 1 12.7-21.8c1-1.2 2.5-2.5 1.3-4.3s-3-1.1-4.6-.7a23.7 23.7 0 0 0-15.6 22.1zm109.6 13.3h1.6l2-.2a23 23 0 0 0 16.2-10.1c.8-1.3 1-2.6 0-3.8s-2.3-1.2-3.7-.5a57.3 57.3 0 0 1-12.6 5 76 76 0 0 1-12.5 1.6c-1.5 0-3 .2-3.5 2s1 2.8 2.3 3.5a20.5 20.5 0 0 0 10.2 2.5z"/><path d="M126 106.3A18.1 18.1 0 0 1 144.3 88h.1a18.3 18.3 0 1 1-18.3 18.2zM74 106.4A18.3 18.3 0 1 1 55.8 88 18.3 18.3 0 0 1 74 106.4z" class="cls-2"/><path fill="#181715" d="M112 128.5a25 25 0 0 1 6.3.7c2 .4 2.9 1.4 2.8 3s-1 2.4-2.9 2.7a48.5 48.5 0 0 0-23.8 9.2 68.5 68.5 0 0 0-10 9.6c-1.5 1.6-2.7 2-4 1.2s-1.8-2-1.2-4c3-9 9.2-15.2 17.7-19.2a33.8 33.8 0 0 1 15.1-3.2z"/><path d="M36.8 70.3c0-9.8 6.8-19.4 15.6-22 1.6-.5 3.4-1.3 4.6.6s-.2 3.1-1.3 4.3A55.3 55.3 0 0 0 43 75c-.4 1.5-1.3 2.6-3 2.5s-2.4-1.2-2.7-2.8a23.3 23.3 0 0 1-.5-4.4zM146.4 83.6a20.4 20.4 0 0 1-10.1-2.5c-1.4-.7-2.7-1.6-2.3-3.5s2-2 3.4-2a75.8 75.8 0 0 0 12.5-1.7 57.3 57.3 0 0 0 12.6-4.9c1.4-.7 2.6-.8 3.7.5s.8 2.5 0 3.7A22.9 22.9 0 0 1 148 83.6h-1.6z" class="cls-4"/></svg>