<svg xmlns="http://www.w3.org/2000/svg" data-name="Layer 1" viewBox="0 0 200 200"><path fill="#feca00" d="M100 200a100 100 0 1 1 100-100 99.8 99.8 0 0 1-100 100zM91 91.7a22.2 22.2 0 0 0-8.5-18 18 18 0 0 0-18.6-3.1 20.5 20.5 0 0 0-9.2 7.4c-.9 1.1-1.3 1-2 0a19.7 19.7 0 0 0-2.9-2.4c-5.4-3.9-11.3-5.3-17.8-2.8-12.4 4.7-17.3 19.7-11 31.6A67.5 67.5 0 0 0 33.9 121a134.4 134.4 0 0 0 23 17.8 1.4 1.4 0 0 0 2-.2A145.8 145.8 0 0 0 74 124.1a85.7 85.7 0 0 0 14.4-21.3 26.5 26.5 0 0 0 2.7-11.1zm90.6 1.5a20 20 0 0 0-2.9-11.3c-4-6.7-10-10.5-17.9-10.3-5.5.2-10 3-13.8 6.8-.8.7-1 .5-1.5-.2a21.6 21.6 0 0 0-4.3-4.5c-4.7-3.8-10-5.3-16-3.8a22.3 22.3 0 0 0-15.7 27 49 49 0 0 0 6.7 14.5 124.6 124.6 0 0 0 25 27.4c.7.7 1.3.5 2 0a152 152 0 0 0 17-12.4 85.7 85.7 0 0 0 17.2-19.2 24 24 0 0 0 4.3-14zm-81.6 66a21.3 21.3 0 0 0 6.7-1 25.2 25.2 0 0 0 17-26.9c-.2-1-.7-.8-1.3-.6a73.5 73.5 0 0 1-12.7 2.4 88.7 88.7 0 0 1-32-2.4c-1-.3-1 0-1.1.8a24.8 24.8 0 0 0 .4 8.2 24 24 0 0 0 23 19.6z"/><path fill="#e84047" d="M91 91.7a26.5 26.5 0 0 1-2.6 11A85.5 85.5 0 0 1 74 124.2a146.4 146.4 0 0 1-15 14.6 1.4 1.4 0 0 1-2 .1A134.5 134.5 0 0 1 34 121a67.6 67.6 0 0 1-13-16.6c-6.3-12-1.4-27 11-31.6 6.4-2.5 12.3-1.1 17.8 2.8a19.7 19.7 0 0 1 2.8 2.5c.8.8 1.3 1 2-.1a20.5 20.5 0 0 1 9.3-7.4 18.3 18.3 0 0 1 18.7 3 22.2 22.2 0 0 1 8.5 18zm90.7 1.5a24 24 0 0 1-4.2 14 85.8 85.8 0 0 1-17.1 19.2 152 152 0 0 1-17.1 12.4c-.7.4-1.3.7-2 0a124 124 0 0 1-25-27.5 49.2 49.2 0 0 1-6.7-14.5c-2.9-12 4.2-24.1 15.8-27 6-1.5 11.2 0 15.9 3.8a21.6 21.6 0 0 1 4.3 4.6c.5.7.7.8 1.5.1 3.8-3.8 8.3-6.6 13.8-6.7 8-.3 13.8 3.6 17.9 10.3a20 20 0 0 1 3 11.3z"/><path fill="#171615" d="M100 159.3a24 24 0 0 1-23-19.6 24.4 24.4 0 0 1-.5-8.1c.1-.8.2-1.2 1.1-1a88.7 88.7 0 0 0 32 2.5 73.5 73.5 0 0 0 12.7-2.4c.7-.1 1.2-.4 1.3.7a25 25 0 0 1-17 26.9 21.3 21.3 0 0 1-6.6 1z"/></svg>
