<svg xmlns="http://www.w3.org/2000/svg" id="Layer_1" data-name="Layer 1" viewBox="0 0 200 199.9"><defs><style>.cls-2{fill:#171615}</style></defs><path fill="#feca00" d="M100 0A100 100 0 1 1 0 98.3 99.9 99.9 0 0 1 100 0zM37.5 106.4A18.3 18.3 0 1 0 55.7 88a18.3 18.3 0 0 0-18.2 18.3zm125 0a18.3 18.3 0 1 0-18.2 18.2 18.2 18.2 0 0 0 18.2-18.2zm-62.4 26.4a194 194 0 0 0-25.4 1.3c-2 .3-3.2 1.5-3.2 3.4s1.2 3 3.3 3.2l5.4.6a246.8 246.8 0 0 0 44.7-.5c2.3-.3 3.5-1.4 3.5-3.3s-1.1-3.1-3.3-3.4a192.4 192.4 0 0 0-25-1.2z"/><path d="M37.5 106.4A18.2 18.2 0 0 1 55.7 88a18.3 18.3 0 1 1-18.2 18.3zM162.5 106.4A18.3 18.3 0 1 1 144.3 88a18.3 18.3 0 0 1 18.2 18.3z" class="cls-2"/><path fill="#191715" d="M100 132.9a193 193 0 0 1 25 1.3c2.3.2 3.5 1.4 3.4 3.3s-1.2 3-3.5 3.3a246.8 246.8 0 0 1-44.7.6l-5.4-.6c-2-.3-3.2-1.5-3.3-3.2s1.1-3.2 3.2-3.4a194 194 0 0 1 25.4-1.3z"/></svg>