<svg xmlns="http://www.w3.org/2000/svg" id="Layer_1" data-name="Layer 1" viewBox="0 0 200 200"><defs><style>.cls-2{fill:#171615}</style></defs><path fill="#feca00" d="M100 0A100 100 0 1 1 0 100.3 99.8 99.8 0 0 1 100 0zm55.2 92.3l4.2-3.3a48.6 48.6 0 0 0 8-7.5 2.4 2.4 0 0 0-2.7-3.8 11.9 11.9 0 0 0-1.3.6c-5.7 3-11 6.5-16.6 9.6-5.8 3.2-11.5 6.7-18 8.5-3.7 1-7.5 1.9-11.3 0a2.8 2.8 0 0 0-3.4 0c-1 1-.8 2.2-.6 3.4.8 4 4.6 6.8 9.3 7.2 1 0 2.3-.3 2.9.2s.4 1.8.6 2.8a18.1 18.1 0 1 0 35.5-7.2 18.6 18.6 0 0 0-6.6-10.5zM37.8 106.5a19.8 19.8 0 0 0 .3 3.3 18.1 18.1 0 0 0 35.8-1.5c.1-1 .5-1.3 1.5-1.2a11.7 11.7 0 0 0 5.8-1.1c3-1.4 5-3.6 5.4-7 .2-2.6-1.3-3.7-3.7-2.8a19.5 19.5 0 0 1-3 1.1c-3.7.7-7.2-.3-10.6-1.4-6-2-11.4-5.4-16.9-8.4S41.6 80.8 36 78c-1.3-.6-2.6-.8-3.5.5s-.5 2.4.5 3.5a64.2 64.2 0 0 0 10.8 9.4c.8.6 1 1 .1 1.7a17.4 17.4 0 0 0-6 13.4zm33.5 39.1a2.9 2.9 0 0 0 2 3 3 3 0 0 0 3.7-1.3 20.8 20.8 0 0 1 7.2-6.8 30.7 30.7 0 0 1 21-3.7 25 25 0 0 1 17.7 10.6 3 3 0 0 0 4 1.1 3.1 3.1 0 0 0 1.5-4 20.5 20.5 0 0 0-6.1-9.1 33.4 33.4 0 0 0-33-6.7 26 26 0 0 0-17.1 14 7.6 7.6 0 0 0-1 3z"/><path d="M155.2 92.3a18.5 18.5 0 0 1 6.6 10.6 18.1 18.1 0 1 1-35.5 7.1c-.2-1 0-2.3-.6-2.8s-2-.2-3-.2c-4.7-.4-8.4-3.3-9.2-7.2-.3-1.2-.5-2.5.6-3.4a2.8 2.8 0 0 1 3.4-.1c3.8 2 7.6 1 11.4 0 6.4-1.7 12-5.2 17.8-8.4 5.7-3 11-6.7 16.7-9.6a11.9 11.9 0 0 1 1.3-.6 2.4 2.4 0 0 1 2.8 3.8 48.6 48.6 0 0 1-8 7.5l-4.3 3.3zM37.8 106.5a17.5 17.5 0 0 1 6-13.4c.9-.8.8-1 0-1.7a64.4 64.4 0 0 1-11-9.4c-1-1.1-1.4-2.3-.4-3.5s2.2-1.1 3.5-.5c5.7 2.8 11 6.4 16.5 9.5s11 6.3 17 8.3c3.3 1.2 6.8 2.2 10.4 1.5a19.9 19.9 0 0 0 3.1-1.1c2.4-.9 3.9.2 3.7 2.7-.3 3.5-2.4 5.7-5.4 7a11.7 11.7 0 0 1-5.8 1.2c-1-.1-1.4.1-1.5 1.2a18.1 18.1 0 0 1-35.8 1.5 20 20 0 0 1-.3-3.3zM71.3 145.6a7.6 7.6 0 0 1 1-2.8 26 26 0 0 1 17.1-14c12-3.5 23.2-1.8 33 6.6a20.6 20.6 0 0 1 6 9.2 3.1 3.1 0 0 1-1.4 3.9 3 3 0 0 1-4-1 25.1 25.1 0 0 0-17.7-10.7 30.8 30.8 0 0 0-21 3.7 20.8 20.8 0 0 0-7.2 6.8 3 3 0 0 1-3.7 1.3 2.9 2.9 0 0 1-2-3z" class="cls-2"/></svg>