<svg xmlns="http://www.w3.org/2000/svg" id="Layer_1" data-name="Layer 1" viewBox="0 0 200 199.97"><defs><style>.cls-2{fill:#171615}</style></defs><path fill="#feca00" d="M99.79 200C44.71 200 .15 155.36 0 100.17A100 100 0 1 1 99.79 200zm44.53-111.8a18.26 18.26 0 1 0 0 36.53 18.26 18.26 0 0 0 0-36.53zm-88.57 0A18.25 18.25 0 1 0 74 106.41a18.21 18.21 0 0 0-18.25-18.19zm43.38 64.65c6.12-.08 11.19-1 15.94-3.37 6-2.94 10.72-7.17 13.18-13.56.78-2 .35-3.58-1.14-4.4s-3.15-.38-4.41 1.45a21.08 21.08 0 0 1-5.82 5.71 30.42 30.42 0 0 1-22.19 4.43c-7.2-1.16-13.37-4.27-17.61-10.51a3.11 3.11 0 0 0-5.58 2.68 19.15 19.15 0 0 0 3.44 6.34c6.46 7.92 15.15 10.9 24.18 11.24z" transform="translate(0 -.05)"/><path d="M144.31 88.22A18.26 18.26 0 1 1 126 106.35a18.23 18.23 0 0 1 18.31-18.13zM55.75 88.22a18.25 18.25 0 0 1-.08 36.51 18.25 18.25 0 0 1 .08-36.51zM99.12 152.87c-9-.34-17.71-3.32-24.17-11.24a19.15 19.15 0 0 1-3.44-6.34 3.11 3.11 0 0 1 5.58-2.68c4.24 6.25 10.41 9.35 17.61 10.51a30.42 30.42 0 0 0 22.19-4.43 21.08 21.08 0 0 0 5.82-5.71c1.27-1.83 2.82-2.33 4.41-1.45s1.91 2.38 1.14 4.4c-2.46 6.4-7.18 10.62-13.18 13.56-4.76 2.34-9.84 3.3-15.96 3.38z" class="cls-2" transform="translate(0 -.05)"/></svg>