<svg xmlns="http://www.w3.org/2000/svg" version="1.1" xmlns:xlink="http://www.w3.org/1999/xlink" xmlns:svgjs="http://svgjs.dev/svgjs" viewBox="0 0 800 800" opacity="0.1" width="800" height="800"><g stroke-width="0.5" stroke="hsl(261, 60%, 38%)" fill="none"><rect width="88.88888888888889" height="80" x="0" y="0"></rect><rect width="88.88888888888889" height="80" x="88.88888888888889" y="0"></rect><rect width="88.88888888888889" height="80" x="177.77777777777777" y="0"></rect><rect width="88.88888888888889" height="80" x="266.66666666666663" y="0"></rect><rect width="88.88888888888889" height="80" x="355.55555555555554" y="0"></rect><rect width="88.88888888888889" height="80" x="444.44444444444446" y="0"></rect><rect width="88.88888888888889" height="80" x="533.3333333333334" y="0"></rect><rect width="88.88888888888889" height="80" x="622.2222222222223" y="0"></rect><rect width="88.88888888888889" height="80" x="711.1111111111112" y="0"></rect><rect width="88.88888888888889" height="80" x="800.0000000000001" y="0"></rect><rect width="88.88888888888889" height="80" x="0" y="80"></rect><rect width="88.88888888888889" height="80" x="88.88888888888889" y="80"></rect><rect width="88.88888888888889" height="80" x="177.77777777777777" y="80"></rect><rect width="88.88888888888889" height="80" x="266.66666666666663" y="80"></rect><rect width="88.88888888888889" height="80" x="355.55555555555554" y="80"></rect><rect width="88.88888888888889" height="80" x="444.44444444444446" y="80"></rect><rect width="88.88888888888889" height="80" x="533.3333333333334" y="80"></rect><rect width="88.88888888888889" height="80" x="622.2222222222223" y="80"></rect><rect width="88.88888888888889" height="80" x="711.1111111111112" y="80"></rect><rect width="88.88888888888889" height="80" x="800.0000000000001" y="80"></rect><rect width="88.88888888888889" height="80" x="0" y="160"></rect><rect width="88.88888888888889" height="80" x="88.88888888888889" y="160"></rect><rect width="88.88888888888889" height="80" x="177.77777777777777" y="160"></rect><rect width="88.88888888888889" height="80" x="266.66666666666663" y="160"></rect><rect width="88.88888888888889" height="80" x="355.55555555555554" y="160"></rect><rect width="88.88888888888889" height="80" x="444.44444444444446" y="160"></rect><rect width="88.88888888888889" height="80" x="533.3333333333334" y="160"></rect><rect width="88.88888888888889" height="80" x="622.2222222222223" y="160"></rect><rect width="88.88888888888889" height="80" x="711.1111111111112" y="160"></rect><rect width="88.88888888888889" height="80" x="800.0000000000001" y="160"></rect><rect width="88.88888888888889" height="80" x="0" y="240"></rect><rect width="88.88888888888889" height="80" x="88.88888888888889" y="240"></rect><rect width="88.88888888888889" height="80" x="177.77777777777777" y="240"></rect><rect width="88.88888888888889" height="80" x="266.66666666666663" y="240"></rect><rect width="88.88888888888889" height="80" x="355.55555555555554" y="240"></rect><rect width="88.88888888888889" height="80" x="444.44444444444446" y="240"></rect><rect width="88.88888888888889" height="80" x="533.3333333333334" y="240"></rect><rect width="88.88888888888889" height="80" x="622.2222222222223" y="240"></rect><rect width="88.88888888888889" height="80" x="711.1111111111112" y="240"></rect><rect width="88.88888888888889" height="80" x="800.0000000000001" y="240"></rect><rect width="88.88888888888889" height="80" x="0" y="320"></rect><rect width="88.88888888888889" height="80" x="88.88888888888889" y="320"></rect><rect width="88.88888888888889" height="80" x="177.77777777777777" y="320"></rect><rect width="88.88888888888889" height="80" x="266.66666666666663" y="320"></rect><rect width="88.88888888888889" height="80" x="355.55555555555554" y="320"></rect><rect width="88.88888888888889" height="80" x="444.44444444444446" y="320"></rect><rect width="88.88888888888889" height="80" x="533.3333333333334" y="320"></rect><rect width="88.88888888888889" height="80" x="622.2222222222223" y="320"></rect><rect width="88.88888888888889" height="80" x="711.1111111111112" y="320"></rect><rect width="88.88888888888889" height="80" x="800.0000000000001" y="320"></rect><rect width="88.88888888888889" height="80" x="0" y="400"></rect><rect width="88.88888888888889" height="80" x="88.88888888888889" y="400"></rect><rect width="88.88888888888889" height="80" x="177.77777777777777" y="400"></rect><rect width="88.88888888888889" height="80" x="266.66666666666663" y="400"></rect><rect width="88.88888888888889" height="80" x="355.55555555555554" y="400"></rect><rect width="88.88888888888889" height="80" x="444.44444444444446" y="400"></rect><rect width="88.88888888888889" height="80" x="533.3333333333334" y="400"></rect><rect width="88.88888888888889" height="80" x="622.2222222222223" y="400"></rect><rect width="88.88888888888889" height="80" x="711.1111111111112" y="400"></rect><rect width="88.88888888888889" height="80" x="800.0000000000001" y="400"></rect><rect width="88.88888888888889" height="80" x="0" y="480"></rect><rect width="88.88888888888889" height="80" x="88.88888888888889" y="480"></rect><rect width="88.88888888888889" height="80" x="177.77777777777777" y="480"></rect><rect width="88.88888888888889" height="80" x="266.66666666666663" y="480"></rect><rect width="88.88888888888889" height="80" x="355.55555555555554" y="480"></rect><rect width="88.88888888888889" height="80" x="444.44444444444446" y="480"></rect><rect width="88.88888888888889" height="80" x="533.3333333333334" y="480"></rect><rect width="88.88888888888889" height="80" x="622.2222222222223" y="480"></rect><rect width="88.88888888888889" height="80" x="711.1111111111112" y="480"></rect><rect width="88.88888888888889" height="80" x="800.0000000000001" y="480"></rect><rect width="88.88888888888889" height="80" x="0" y="560"></rect><rect width="88.88888888888889" height="80" x="88.88888888888889" y="560"></rect><rect width="88.88888888888889" height="80" x="177.77777777777777" y="560"></rect><rect width="88.88888888888889" height="80" x="266.66666666666663" y="560"></rect><rect width="88.88888888888889" height="80" x="355.55555555555554" y="560"></rect><rect width="88.88888888888889" height="80" x="444.44444444444446" y="560"></rect><rect width="88.88888888888889" height="80" x="533.3333333333334" y="560"></rect><rect width="88.88888888888889" height="80" x="622.2222222222223" y="560"></rect><rect width="88.88888888888889" height="80" x="711.1111111111112" y="560"></rect><rect width="88.88888888888889" height="80" x="800.0000000000001" y="560"></rect><rect width="88.88888888888889" height="80" x="0" y="640"></rect><rect width="88.88888888888889" height="80" x="88.88888888888889" y="640"></rect><rect width="88.88888888888889" height="80" x="177.77777777777777" y="640"></rect><rect width="88.88888888888889" height="80" x="266.66666666666663" y="640"></rect><rect width="88.88888888888889" height="80" x="355.55555555555554" y="640"></rect><rect width="88.88888888888889" height="80" x="444.44444444444446" y="640"></rect><rect width="88.88888888888889" height="80" x="533.3333333333334" y="640"></rect><rect width="88.88888888888889" height="80" x="622.2222222222223" y="640"></rect><rect width="88.88888888888889" height="80" x="711.1111111111112" y="640"></rect><rect width="88.88888888888889" height="80" x="800.0000000000001" y="640"></rect><rect width="88.88888888888889" height="80" x="0" y="720"></rect><rect width="88.88888888888889" height="80" x="88.88888888888889" y="720"></rect><rect width="88.88888888888889" height="80" x="177.77777777777777" y="720"></rect><rect width="88.88888888888889" height="80" x="266.66666666666663" y="720"></rect><rect width="88.88888888888889" height="80" x="355.55555555555554" y="720"></rect><rect width="88.88888888888889" height="80" x="444.44444444444446" y="720"></rect><rect width="88.88888888888889" height="80" x="533.3333333333334" y="720"></rect><rect width="88.88888888888889" height="80" x="622.2222222222223" y="720"></rect><rect width="88.88888888888889" height="80" x="711.1111111111112" y="720"></rect><rect width="88.88888888888889" height="80" x="800.0000000000001" y="720"></rect><rect width="88.88888888888889" height="80" x="0" y="800"></rect><rect width="88.88888888888889" height="80" x="88.88888888888889" y="800"></rect><rect width="88.88888888888889" height="80" x="177.77777777777777" y="800"></rect><rect width="88.88888888888889" height="80" x="266.66666666666663" y="800"></rect><rect width="88.88888888888889" height="80" x="355.55555555555554" y="800"></rect><rect width="88.88888888888889" height="80" x="444.44444444444446" y="800"></rect><rect width="88.88888888888889" height="80" x="533.3333333333334" y="800"></rect><rect width="88.88888888888889" height="80" x="622.2222222222223" y="800"></rect><rect width="88.88888888888889" height="80" x="711.1111111111112" y="800"></rect><rect width="88.88888888888889" height="80" x="800.0000000000001" y="800"></rect></g></svg>