<svg width="1407" height="1851" viewBox="0 0 1407 1851" fill="none" xmlns="http://www.w3.org/2000/svg">
<g clip-path="url(#clip0_302_14)">
<path fill-rule="evenodd" clip-rule="evenodd" d="M375.565 954.137C150.151 796.801 68.8047 524.838 193.833 346.737C318.927 168.623 603.003 151.788 828.418 309.137C1053.82 466.487 1135.15 738.411 1010.15 916.525C885.083 1094.64 600.967 1111.46 375.565 954.137Z" fill="#F6D33C"/>
<path fill-rule="evenodd" clip-rule="evenodd" d="M40.7251 939.611L373.866 1646.71L1035.6 1789.66L1380.22 1362.36L1337.53 548.754L580.488 496.304L40.7251 939.611Z" fill="#F6D33C"/>
<path fill-rule="evenodd" clip-rule="evenodd" d="M1326.05 540.985L845.356 929.533L1023.37 1804.6L1376.44 1350.31L1326.05 540.985Z" fill="#1879BF"/>
<path fill-rule="evenodd" clip-rule="evenodd" d="M33.8901 933.748L824.384 937.937L1048.57 1821.37L364.684 1648.03L33.8901 933.748Z" fill="#CF4044"/>
<path fill-rule="evenodd" clip-rule="evenodd" d="M1858.62 2041.61L1869.64 2060.33C1872.86 2066.07 1875.83 2071.55 1878.81 2077.02H1879.27C1882.25 2070.83 1884.99 2065.37 1887.98 2059.67L1897.84 2041.6H1935.66L1898.75 2094.83L1936.09 2153.37H1896.67L1885.45 2133.23C1882.23 2127.77 1879.33 2122.13 1876.76 2116.33H1876.08C1873.31 2122.28 1870.33 2127.76 1867.57 2133.23L1857.04 2153.37H1818.79L1856.84 2096.45L1819.71 2041.6H1858.62V2041.61ZM1961.69 2155.85C1950.02 2155.85 1941.55 2146.93 1941.55 2134.83C1941.55 2122.28 1950 2113.57 1962.17 2113.57C1974.05 2113.57 1982.31 2122.05 1982.56 2134.83C1982.56 2146.94 1974.3 2155.85 1961.91 2155.85H1961.69ZM85.0038 926.33L398.833 1622.65L1024.59 1726.15L1345.56 1354.63L1288.92 564.006L988.763 542.788C988.763 542.788 918.195 533.592 762.376 432.052C664.778 368.461 512.812 398.823 456.873 478.471C402.361 556.03 374.463 626.248 359.25 673.16C344.049 720.084 272.054 778.163 272.054 778.163L85.0038 926.33ZM0 938.275C0 938.275 225.428 772.184 264.505 735.246C303.544 698.347 333.894 550.518 397.342 465.825C455.706 387.903 496.093 349.473 593.885 338.06C738.343 321.199 815.409 399.277 870.427 442.765C935.885 494.462 1021.46 506.485 1021.46 506.485L1367.26 513.476L1402.1 1365.84L1061.43 1843.91L352.09 1672.25L0 938.275Z" fill="black"/>
<path fill-rule="evenodd" clip-rule="evenodd" d="M154.236 932.01L839.455 904.631L1159.7 672.265L890.673 926.33L999.178 1622.31L811.92 969.156L154.236 932.01ZM679.032 241.669L723.337 77.2121C723.337 77.2121 723.505 45.7345 779.47 44.4635C806.706 43.8539 842.516 74.7868 828.288 107.587C814.021 140.414 679.032 241.669 679.032 241.669ZM911.217 312.159C911.217 312.159 937.286 271.551 981.617 246.61C1003.89 234.068 1037.19 225.508 1056.62 242.278C1080.28 262.693 1078.25 291.213 1035.87 304.378C1016.25 310.499 911.217 312.159 911.217 312.159ZM476.794 256.234C476.794 256.234 460.115 76.2913 452.009 54.0222C437.068 12.9469 373.815 1.20931 356.889 0.236578C282.987 -4.08235 318.161 51.9341 329.575 70.1177C359.185 117.263 476.794 256.234 476.794 256.234ZM340.288 329.876L210.292 220.995C210.292 220.995 167.556 183.188 117.428 202.669C-16.8217 254.846 150.397 286.752 150.397 286.752L340.288 329.876ZM225.363 499.248C225.363 499.248 83.3698 450.612 60.9061 463.153C38.4944 475.656 27.6258 559.013 104.925 549.662C162.667 542.671 225.363 499.248 225.363 499.248Z" fill="black"/>
</g>
<defs>
<clipPath id="clip0_302_14">
<rect width="1407" height="1851" fill="white"/>
</clipPath>
</defs>
</svg>
